<svg width="190" height="48" viewBox="0 0 190 48" fill="none" xmlns="http://www.w3.org/2000/svg">
<rect x="0.5" y="0.5" width="189" height="47" rx="3.5" fill="white"/>
<rect x="0.5" y="0.5" width="189" height="47" rx="3.5" stroke="#A53DFF"/>
<path d="M45 26C44.7348 26 44.4804 26.1054 44.2929 26.2929C44.1054 26.4804 44 26.7348 44 27V31C44 31.2652 43.8946 31.5196 43.7071 31.7071C43.5196 31.8946 43.2652 32 43 32H29C28.7348 32 28.4804 31.8946 28.2929 31.7071C28.1054 31.5196 28 31.2652 28 31V27C28 26.7348 27.8946 26.4804 27.7071 26.2929C27.5196 26.1054 27.2652 26 27 26C26.7348 26 26.4804 26.1054 26.2929 26.2929C26.1054 26.4804 26 26.7348 26 27V31C26 31.7956 26.3161 32.5587 26.8787 33.1213C27.4413 33.6839 28.2044 34 29 34H43C43.7956 34 44.5587 33.6839 45.1213 33.1213C45.6839 32.5587 46 31.7956 46 31V27C46 26.7348 45.8946 26.4804 45.7071 26.2929C45.5196 26.1054 45.2652 26 45 26ZM35.29 27.71C35.3851 27.801 35.4972 27.8724 35.62 27.92C35.7397 27.9729 35.8691 28.0002 36 28.0002C36.1309 28.0002 36.2603 27.9729 36.38 27.92C36.5028 27.8724 36.6149 27.801 36.71 27.71L40.71 23.71C40.8983 23.5217 41.0041 23.2663 41.0041 23C41.0041 22.7337 40.8983 22.4783 40.71 22.29C40.5217 22.1017 40.2663 21.9959 40 21.9959C39.7337 21.9959 39.4783 22.1017 39.29 22.29L37 24.59V15C37 14.7348 36.8946 14.4804 36.7071 14.2929C36.5196 14.1054 36.2652 14 36 14C35.7348 14 35.4804 14.1054 35.2929 14.2929C35.1054 14.4804 35 14.7348 35 15V24.59L32.71 22.29C32.6168 22.1968 32.5061 22.1228 32.3842 22.0723C32.2624 22.0219 32.1319 21.9959 32 21.9959C31.8681 21.9959 31.7376 22.0219 31.6158 22.0723C31.4939 22.1228 31.3832 22.1968 31.29 22.29C31.1968 22.3832 31.1228 22.4939 31.0723 22.6158C31.0219 22.7376 30.9959 22.8681 30.9959 23C30.9959 23.1319 31.0219 23.2624 31.0723 23.3842C31.1228 23.5061 31.1968 23.6168 31.29 23.71L35.29 27.71Z" fill="#A53DFF"/>
<path d="M65.456 18.44C67.1093 18.44 68.3893 18.8987 69.296 19.816C70.2027 20.7227 70.656 22.024 70.656 23.72C70.656 25.4053 70.2027 26.7067 69.296 27.624C68.3893 28.5413 67.1093 29 65.456 29H61.376V18.44H65.456ZM65.344 27.24C66.3467 27.24 67.0987 26.9413 67.6 26.344C68.112 25.736 68.368 24.8613 68.368 23.72C68.368 22.5787 68.112 21.7093 67.6 21.112C67.0987 20.504 66.3467 20.2 65.344 20.2H63.584V27.24H65.344ZM76.3 20.84C77.1107 20.84 77.82 21.0053 78.428 21.336C79.0467 21.6667 79.5267 22.1413 79.868 22.76C80.22 23.3787 80.396 24.1253 80.396 25C80.396 25.864 80.22 26.6107 79.868 27.24C79.5267 27.8587 79.0467 28.3333 78.428 28.664C77.82 28.9947 77.1107 29.16 76.3 29.16C75.5 29.16 74.7907 28.9947 74.172 28.664C73.5533 28.3333 73.068 27.8587 72.716 27.24C72.3747 26.6107 72.204 25.864 72.204 25C72.204 24.1253 72.3747 23.3787 72.716 22.76C73.068 22.1413 73.5533 21.6667 74.172 21.336C74.7907 21.0053 75.5 20.84 76.3 20.84ZM76.3 22.472C75.8947 22.472 75.548 22.568 75.26 22.76C74.9827 22.9413 74.7693 23.2187 74.62 23.592C74.4707 23.9653 74.396 24.4347 74.396 25C74.396 25.5653 74.4707 26.0347 74.62 26.408C74.7693 26.7813 74.9827 27.064 75.26 27.256C75.548 27.4373 75.8947 27.528 76.3 27.528C76.6947 27.528 77.0307 27.4373 77.308 27.256C77.596 27.064 77.8147 26.7813 77.964 26.408C78.1133 26.0347 78.188 25.5653 78.188 25C78.188 24.4347 78.1133 23.9653 77.964 23.592C77.8147 23.2187 77.596 22.9413 77.308 22.76C77.0307 22.568 76.6947 22.472 76.3 22.472ZM92.3314 21H94.6674L92.1074 29H89.5794L87.8354 23.56L86.1554 29H83.6274L81.0674 21H83.4034L85.0034 27.128L86.7794 21H88.9554L90.7474 27.128L92.3314 21ZM96.027 29V21H97.995L98.123 23.4L97.851 23.144C97.979 22.6213 98.1817 22.1893 98.459 21.848C98.7363 21.5067 99.0723 21.256 99.467 21.096C99.8723 20.9253 100.315 20.84 100.795 20.84C101.35 20.84 101.84 20.9467 102.267 21.16C102.704 21.3733 103.046 21.6987 103.291 22.136C103.547 22.5627 103.675 23.1013 103.675 23.752V29H101.483V24.376C101.483 23.6933 101.35 23.224 101.083 22.968C100.816 22.7013 100.47 22.568 100.043 22.568C99.7443 22.568 99.451 22.6427 99.163 22.792C98.8857 22.9307 98.6563 23.16 98.475 23.48C98.3043 23.8 98.219 24.2267 98.219 24.76V29H96.027ZM108.093 17.496V26.536C108.093 26.9093 108.157 27.1707 108.285 27.32C108.413 27.4693 108.627 27.544 108.925 27.544C109.107 27.544 109.256 27.5333 109.373 27.512C109.491 27.48 109.64 27.4373 109.821 27.384L109.629 28.824C109.448 28.9307 109.219 29.0107 108.941 29.064C108.675 29.128 108.408 29.16 108.141 29.16C107.363 29.16 106.792 28.9733 106.429 28.6C106.077 28.216 105.901 27.608 105.901 26.776V17.496H108.093ZM114.691 20.84C115.501 20.84 116.211 21.0053 116.819 21.336C117.437 21.6667 117.917 22.1413 118.259 22.76C118.611 23.3787 118.787 24.1253 118.787 25C118.787 25.864 118.611 26.6107 118.259 27.24C117.917 27.8587 117.437 28.3333 116.819 28.664C116.211 28.9947 115.501 29.16 114.691 29.16C113.891 29.16 113.181 28.9947 112.563 28.664C111.944 28.3333 111.459 27.8587 111.107 27.24C110.765 26.6107 110.595 25.864 110.595 25C110.595 24.1253 110.765 23.3787 111.107 22.76C111.459 22.1413 111.944 21.6667 112.563 21.336C113.181 21.0053 113.891 20.84 114.691 20.84ZM114.691 22.472C114.285 22.472 113.939 22.568 113.651 22.76C113.373 22.9413 113.16 23.2187 113.011 23.592C112.861 23.9653 112.787 24.4347 112.787 25C112.787 25.5653 112.861 26.0347 113.011 26.408C113.16 26.7813 113.373 27.064 113.651 27.256C113.939 27.4373 114.285 27.528 114.691 27.528C115.085 27.528 115.421 27.4373 115.699 27.256C115.987 27.064 116.205 26.7813 116.355 26.408C116.504 26.0347 116.579 25.5653 116.579 25C116.579 24.4347 116.504 23.9653 116.355 23.592C116.205 23.2187 115.987 22.9413 115.699 22.76C115.421 22.568 115.085 22.472 114.691 22.472ZM125.134 23.896C125.134 23.4373 125.001 23.08 124.734 22.824C124.478 22.568 124.137 22.44 123.71 22.44C123.315 22.44 122.969 22.5413 122.67 22.744C122.371 22.9467 122.153 23.2827 122.014 23.752L120.142 23.176C120.323 22.472 120.718 21.9067 121.326 21.48C121.945 21.0533 122.771 20.84 123.806 20.84C124.51 20.84 125.123 20.952 125.646 21.176C126.169 21.3893 126.574 21.7147 126.862 22.152C127.161 22.5893 127.31 23.1387 127.31 23.8V27.048C127.31 27.4533 127.502 27.656 127.886 27.656C128.067 27.656 128.238 27.6293 128.398 27.576L128.27 28.936C127.993 29.0747 127.646 29.144 127.23 29.144C126.857 29.144 126.521 29.08 126.222 28.952C125.923 28.824 125.689 28.632 125.518 28.376C125.347 28.1093 125.262 27.7787 125.262 27.384V27.32L125.646 27.256C125.582 27.6613 125.406 28.008 125.118 28.296C124.83 28.5733 124.478 28.7867 124.062 28.936C123.657 29.0853 123.235 29.16 122.798 29.16C122.254 29.16 121.785 29.08 121.39 28.92C120.995 28.7493 120.691 28.504 120.478 28.184C120.265 27.864 120.158 27.4693 120.158 27C120.158 26.4027 120.35 25.9173 120.734 25.544C121.118 25.16 121.667 24.8987 122.382 24.76L125.39 24.152L125.374 25.512L123.454 25.896C123.091 25.9707 122.814 26.072 122.622 26.2C122.441 26.3173 122.35 26.5147 122.35 26.792C122.35 27.0587 122.446 27.2613 122.638 27.4C122.841 27.5387 123.081 27.608 123.358 27.608C123.582 27.608 123.801 27.5813 124.014 27.528C124.227 27.4747 124.419 27.3893 124.59 27.272C124.761 27.1547 124.894 26.9947 124.99 26.792C125.086 26.5893 125.134 26.344 125.134 26.056V23.896ZM132.754 29.16C132.093 29.16 131.501 28.9947 130.978 28.664C130.466 28.3333 130.061 27.8587 129.762 27.24C129.474 26.6213 129.33 25.88 129.33 25.016C129.33 24.1307 129.485 23.3787 129.794 22.76C130.103 22.1307 130.519 21.656 131.042 21.336C131.575 21.0053 132.173 20.84 132.834 20.84C133.538 20.84 134.119 21.0427 134.578 21.448C135.037 21.8533 135.335 22.376 135.474 23.016L135.266 23.272V17.496H137.458V29H135.49L135.346 26.568L135.618 26.696C135.543 27.1973 135.373 27.6347 135.106 28.008C134.839 28.3707 134.503 28.6533 134.098 28.856C133.693 29.0587 133.245 29.16 132.754 29.16ZM133.394 27.48C133.778 27.48 134.109 27.384 134.386 27.192C134.663 26.9893 134.877 26.696 135.026 26.312C135.186 25.928 135.266 25.4693 135.266 24.936C135.266 24.424 135.191 23.992 135.042 23.64C134.893 23.2773 134.679 23 134.402 22.808C134.125 22.616 133.799 22.52 133.426 22.52C132.829 22.52 132.359 22.7333 132.018 23.16C131.687 23.576 131.522 24.1893 131.522 25C131.522 25.8107 131.687 26.4293 132.018 26.856C132.349 27.272 132.807 27.48 133.394 27.48ZM153.916 26.088C153.713 26.7707 153.393 27.3413 152.956 27.8C152.519 28.2587 152.001 28.6 151.404 28.824C150.807 29.048 150.151 29.16 149.436 29.16C148.391 29.16 147.484 28.9413 146.716 28.504C145.959 28.0667 145.372 27.4427 144.956 26.632C144.551 25.8213 144.348 24.8507 144.348 23.72C144.348 22.5893 144.551 21.6187 144.956 20.808C145.372 19.9973 145.959 19.3733 146.716 18.936C147.484 18.4987 148.38 18.28 149.404 18.28C150.129 18.28 150.785 18.3813 151.372 18.584C151.959 18.776 152.455 19.0747 152.86 19.48C153.276 19.8853 153.58 20.3973 153.772 21.016L151.772 21.864C151.591 21.224 151.313 20.7707 150.94 20.504C150.567 20.2267 150.087 20.088 149.5 20.088C148.924 20.088 148.417 20.2267 147.98 20.504C147.553 20.7813 147.223 21.192 146.988 21.736C146.753 22.2693 146.636 22.9307 146.636 23.72C146.636 24.4987 146.743 25.16 146.956 25.704C147.18 26.248 147.505 26.6587 147.932 26.936C148.359 27.2133 148.881 27.352 149.5 27.352C150.076 27.352 150.572 27.1973 150.988 26.888C151.415 26.5787 151.713 26.1093 151.884 25.48L153.916 26.088ZM164.918 18.44L161.078 29H158.502L154.646 18.44H156.982L159.206 25.16L159.814 27.24L160.406 25.176L162.646 18.44H164.918Z" fill="#A53DFF"/>
</svg>
